<?xml version="1.0" encoding="UTF-8"?>
<svg id="Layer_2" data-name="Layer 2" xmlns="http://www.w3.org/2000/svg" viewBox="0 0 595.03 80.42">
  <defs>
    <style>
      .cls-1 {
        fill: #05102c;
      }
    </style>
  </defs>
  <g id="Layer_1" data-name="Layer 1">
    <g>
      <g>
        <path class="cls-1" d="M111.87,10.86h11.82l20.1,50.37h-10.8c-1.77-4.39-3.53-8.78-5.3-13.17h-20.23c-1.77,4.39-3.46,8.78-5.23,13.17h-10.46l20.1-50.37ZM124.1,38.76c-1.63-4-3.67-9.3-6.38-16.34h-.14c-1.77,4.52-4.21,10.59-6.52,16.34h13.04Z"/>
        <path class="cls-1" d="M146.64,66.14l8.62-2.97c1.83,3.94,4.69,5.62,9.1,5.62,6.25,0,9.64-3.68,9.64-11.43v-1.68h-.14c-2.65,4-6.93,5.36-11.2,5.36-11.34,0-17.38-8.52-17.38-18.34,0-10.85,7.4-18.53,17.04-18.53,5.64,0,9.57,2.65,11.68,5.88h.14v-4.84h9.37v32.42c0,14.59-9.1,18.86-18.88,18.86-6.72,0-14.67-1.94-17.99-10.33ZM174.2,42.51c0-5.49-4.01-9.75-9.57-9.75s-9.51,4.33-9.51,9.75,3.94,9.88,9.51,9.88,9.57-4.46,9.57-9.88Z"/>
        <path class="cls-1" d="M190.43,51.8c0-6.72,5.57-9.43,12.22-10.78,8.56-1.74,11.27-2,11.27-4.84,0-2.65-2.38-4.65-6.04-4.65-3.33,0-6.18,1.74-7.4,5.75l-8.89-2.84c2.38-7.49,9.3-10.27,16.64-10.27,9.37,0,15.28,4.39,15.28,12.79v13.04c0,5.88.47,8.4,1.22,11.24h-9.44c-.54-1.55-.75-3.04-.75-4.71h-.14c-1.97,3.49-6.31,5.81-11.27,5.81-6.45,0-12.7-3.49-12.7-10.53ZM213.99,47.67v-2.91c-1.9.78-5.36,1.61-7.4,2-3.06.71-5.77,2.07-5.77,4.78s2.17,3.81,5.09,3.81c5.02,0,8.08-4,8.08-7.68Z"/>
        <path class="cls-1" d="M235.78,49.74v-16.34h-7.47v-8.2h7.47v-10.2h9.51v10.2h10.25v8.2h-10.25v13.11c0,3.42,0,7.62,5.16,7.62,1.83,0,3.6-.58,5.09-1.29v8.14c-1.9.97-4.41,1.36-7.06,1.36-12.7,0-12.7-8.85-12.7-12.59Z"/>
        <path class="cls-1" d="M262.19,9.57h9.51v20.92h.14c2.78-4.33,6.99-6.33,11.61-6.33,6.93,0,13.24,4.52,13.24,14.34v22.73h-9.51v-18.73c0-4.78-1.29-9.69-7.13-9.69-4.48,0-8.35,2.97-8.35,9.82v18.6h-9.51V9.57Z"/>
        <path class="cls-1" d="M303.27,43.28c0-11.17,8.01-19.11,19.56-19.11s19.56,7.94,19.56,19.11-8.01,19.05-19.56,19.05-19.56-7.81-19.56-19.05ZM332.47,43.28c0-6.2-3.94-10.46-9.64-10.46s-9.71,4.33-9.71,10.46,4.01,10.4,9.71,10.4,9.64-4.33,9.64-10.4Z"/>
        <path class="cls-1" d="M346.12,52.19l8.83-2.71c1.7,4,4.89,5.42,7.6,5.42,2.24,0,4.96-.84,4.96-3.42s-2.85-3.42-5.36-4.13l-4.01-1.16c-4.75-1.36-10.25-4.07-10.25-10.72s6.11-11.3,14.26-11.3c7.61,0,12.9,4,14.46,9.11l-8.76,2.71c-.88-2.39-2.65-4.46-5.98-4.46-2.65,0-4.48,1.36-4.48,3.36,0,2.58,3.6,3.68,6.65,4.52l2.92.77c3.73,1.03,10.66,2.84,10.66,10.46,0,7.1-5.84,11.69-15.01,11.69-8.62,0-14.73-4.13-16.5-10.14Z"/>
        <path class="cls-1" d="M382.92,36.18c0-16.14,12.09-26.35,26.62-26.35,10.8,0,20.37,5.55,23.83,15.24l-6.72,2.58c-2.99-6.97-9.17-11.3-17.04-11.3-10.32,0-19.01,7.43-19.01,19.95,0,13.88,10.59,19.5,19.76,19.5s16.02-5.75,17.11-14.08h-16.36v-5.81h23.63v25.31h-5.7c-.14-3.23-.2-6.39-.34-9.62h-.34c-3.67,6.72-10.12,10.72-19.28,10.72-15.28,0-26.14-10.85-26.14-26.15Z"/>
        <path class="cls-1" d="M444.23,25.39h6.79v6.52h.27c1.9-4.33,6.11-7.55,11.41-7.55,1.29,0,2.58.19,4.01.71v7.23c-1.49-.58-3.46-.77-4.62-.77-8.35,0-10.93,7.68-10.93,13.95v15.76h-6.93V25.39Z"/>
        <path class="cls-1" d="M468.87,43.41c0-11.17,7.88-19.05,19.22-19.05s19.08,7.88,19.08,19.05-7.88,18.92-19.08,18.92-19.22-7.75-19.22-18.92ZM499.9,43.41c0-7.55-4.82-12.85-11.81-12.85s-11.95,5.29-11.95,12.85,4.82,12.79,11.95,12.79,11.81-5.29,11.81-12.79Z"/>
        <path class="cls-1" d="M514.77,47.86v-22.47h6.93v20.15c0,7.43,3.8,10.65,8.56,10.65,6.32,0,9.85-5.49,9.85-11.04v-19.76h6.93v24.67c0,5.94.47,8.4,1.22,11.17h-6.93c-.61-2.33-.88-4-.81-5.55h-.14c-2.45,4.39-6.52,6.65-12.02,6.65-7.47,0-13.58-4.2-13.58-14.46Z"/>
        <path class="cls-1" d="M557.82,25.39h6.79v6.52h.14c3.33-5.23,8.01-7.55,13.38-7.55,10.12,0,16.91,8.2,16.91,18.86,0,11.69-7.94,19.11-17.31,19.11-5.98,0-10.53-3.1-12.97-7.04v20.15h-6.93V25.39ZM587.83,43.34c0-7.43-4.89-12.79-11.48-12.79s-11.75,5.23-11.75,12.85,5.23,12.79,11.75,12.79,11.48-5.49,11.48-12.85Z"/>
      </g>
      <g>
        <polygon class="cls-1" points="48.41 32.2 48.41 77.41 56.15 80.42 56.15 35.03 48.41 32.02 48.41 32.2"/>
        <polygon class="cls-1" points="32.68 32.2 32.68 71.3 40.42 74.31 40.42 35.03 32.68 32.02 32.68 32.2"/>
        <polygon class="cls-1" points="16.94 32.2 16.94 65.17 24.69 68.19 24.69 35.03 16.94 32.02 16.94 32.2"/>
        <polygon class="cls-1" points="63.56 15.73 9.45 15.73 4.88 23.48 68.2 23.48 63.63 15.73 63.56 15.73"/>
        <polygon class="cls-1" points="72.96 7.55 68.52 0 4.56 0 0 7.73 73.07 7.73 72.96 7.55"/>
      </g>
    </g>
  </g>
</svg>