<?xml version="1.0" encoding="UTF-8"?>
<svg id="Layer_3" data-name="Layer 3" xmlns="http://www.w3.org/2000/svg" viewBox="0 0 594.01 80.12">
  <defs>
    <style>
      .cls-1 {
        fill: #fff;
      }
    </style>
  </defs>
  <g id="Layer_1" data-name="Layer 1">
    <g>
      <g>
        <g>
          <polygon class="cls-1" points="48.32 32.08 48.32 77.2 55.81 80.12 55.81 34.99 48.32 32.08"/>
          <polygon class="cls-1" points="32.59 32.08 32.59 71.09 40.08 74 40.08 34.99 32.59 32.08"/>
          <polygon class="cls-1" points="16.84 32.08 16.84 64.96 24.34 67.89 24.34 34.99 16.84 32.08"/>
        </g>
        <polygon class="cls-1" points="63.34 15.73 67.76 23.23 4.88 23.23 9.3 15.73 63.34 15.73"/>
        <polygon class="cls-1" points="72.64 7.48 0 7.48 4.41 0 68.23 0 72.64 7.48"/>
      </g>
      <g>
        <path class="cls-1" d="M111.87,10.86h11.81l20.1,50.37h-10.8c-1.77-4.39-3.53-8.78-5.3-13.17h-20.23c-1.77,4.39-3.46,8.78-5.23,13.17h-10.46l20.1-50.37ZM124.1,38.76c-1.63-4-3.67-9.3-6.38-16.34h-.14c-1.77,4.52-4.21,10.59-6.52,16.34h13.04Z"/>
        <path class="cls-1" d="M146.64,66.14l8.62-2.97c1.83,3.94,4.69,5.62,9.1,5.62,6.25,0,9.64-3.68,9.64-11.43v-1.68h-.14c-2.65,4-6.93,5.36-11.2,5.36-11.34,0-17.38-8.52-17.38-18.34,0-10.85,7.4-18.53,17.04-18.53,5.64,0,9.57,2.65,11.68,5.88h.14v-4.84h9.37v32.42c0,14.59-9.1,18.86-18.88,18.86-6.72,0-14.67-1.94-17.99-10.33ZM174.2,42.51c0-5.49-4.01-9.75-9.57-9.75s-9.51,4.33-9.51,9.75,3.94,9.88,9.51,9.88,9.57-4.46,9.57-9.88Z"/>
        <path class="cls-1" d="M190.43,51.8c0-6.72,5.57-9.43,12.22-10.78,8.56-1.74,11.27-2,11.27-4.84,0-2.65-2.38-4.65-6.04-4.65-3.33,0-6.18,1.74-7.4,5.75l-8.9-2.84c2.38-7.49,9.3-10.27,16.64-10.27,9.37,0,15.28,4.39,15.28,12.79v13.04c0,5.88.48,8.4,1.22,11.24h-9.44c-.54-1.55-.75-3.04-.75-4.71h-.14c-1.97,3.49-6.31,5.81-11.27,5.81-6.45,0-12.7-3.49-12.7-10.53ZM213.99,47.67v-2.91c-1.9.78-5.36,1.61-7.4,2-3.06.71-5.77,2.07-5.77,4.78s2.17,3.81,5.09,3.81c5.02,0,8.08-4,8.08-7.68Z"/>
        <path class="cls-1" d="M235.78,49.74v-16.34h-7.47v-8.2h7.47v-10.2h9.51v10.2h10.25v8.2h-10.25v13.11c0,3.42,0,7.62,5.16,7.62,1.83,0,3.6-.58,5.09-1.29v8.14c-1.9.97-4.41,1.36-7.06,1.36-12.7,0-12.7-8.85-12.7-12.59Z"/>
        <path class="cls-1" d="M262.2,9.57h9.51v20.92h.14c2.78-4.33,6.99-6.33,11.61-6.33,6.93,0,13.24,4.52,13.24,14.34v22.73h-9.51v-18.73c0-4.78-1.29-9.69-7.13-9.69-4.48,0-8.35,2.97-8.35,9.82v18.6h-9.51V9.57Z"/>
        <path class="cls-1" d="M303.27,43.28c0-11.17,8.01-19.11,19.56-19.11s19.56,7.94,19.56,19.11-8.01,19.05-19.56,19.05-19.56-7.81-19.56-19.05ZM332.47,43.28c0-6.2-3.94-10.46-9.64-10.46s-9.71,4.33-9.71,10.46,4.01,10.4,9.71,10.4,9.64-4.33,9.64-10.4Z"/>
        <path class="cls-1" d="M346.12,52.19l8.83-2.71c1.7,4,4.89,5.42,7.6,5.42,2.24,0,4.96-.84,4.96-3.42s-2.85-3.42-5.36-4.13l-4.01-1.16c-4.75-1.36-10.25-4.07-10.25-10.72s6.11-11.3,14.26-11.3c7.61,0,12.9,4,14.46,9.11l-8.76,2.71c-.88-2.39-2.65-4.46-5.98-4.46-2.65,0-4.48,1.36-4.48,3.36,0,2.58,3.6,3.68,6.65,4.52l2.92.77c3.73,1.03,10.66,2.84,10.66,10.46,0,7.1-5.84,11.69-15.01,11.69-8.62,0-14.73-4.13-16.5-10.14Z"/>
        <path class="cls-1" d="M383.26,36.24c0-15.95,11.75-26.41,26.48-26.41,10.12,0,20.03,5.1,23.43,14.85l-5.02,1.94c-3.19-7.56-10.19-11.88-18.4-11.88-11.14,0-20.64,8.01-20.64,21.57,0,14.53,10.93,21.12,21.25,21.12s17.99-7.04,18.88-16.53h-17.86v-4.46h23.36v24.8h-4.41c-.07-3.68-.14-7.23-.2-10.91h-.34c-3.6,7.49-10.46,12.01-20.37,12.01-15.28,0-26.14-10.85-26.14-26.09Z"/>
        <path class="cls-1" d="M444.84,25.52h5.03v7.17h.27c1.9-4.84,6.45-8.2,11.95-8.2,1.29,0,2.78.19,4.14.71v5.42c-1.36-.58-3.4-.84-4.62-.84-8.08,0-11.61,7.56-11.61,14.53v16.92h-5.16V25.52Z"/>
        <path class="cls-1" d="M468.47,43.47c0-11.17,7.74-18.99,18.88-18.99s18.81,7.81,18.81,18.99-7.74,18.86-18.81,18.86-18.88-7.75-18.88-18.86ZM500.65,43.47c0-8.46-5.43-14.4-13.31-14.4s-13.38,5.94-13.38,14.4,5.43,14.27,13.38,14.27,13.31-5.88,13.31-14.27Z"/>
        <path class="cls-1" d="M514.57,47.93v-22.41h5.16v20.54c0,8.65,4.75,11.69,9.64,11.69,7.27,0,11.14-6.39,11.14-12.2v-20.02h5.16v24.54c0,5.94.48,8.4,1.22,11.17h-5.16c-.68-2.58-.95-4.58-.95-6.33h-.14c-2.65,5.04-7.13,7.43-12.56,7.43-6.93,0-13.51-3.75-13.51-14.4Z"/>
        <path class="cls-1" d="M557.55,25.52h5.03v7.23h.14c3.26-5.62,8.42-8.27,14.12-8.27,10.05,0,17.18,7.94,17.18,18.86s-7.74,18.99-17.38,18.99c-6.25,0-11.2-3.1-13.92-7.94v21.05h-5.16V25.52ZM588.51,43.41c0-8.33-5.43-14.34-12.76-14.34s-13.11,5.88-13.11,14.4,5.91,14.27,13.11,14.27,12.76-6.07,12.76-14.34Z"/>
      </g>
    </g>
  </g>
</svg>